<?xml version="1.0" encoding="UTF-8"?>
<svg id="Layer_1" xmlns="http://www.w3.org/2000/svg" xmlns:xlink="http://www.w3.org/1999/xlink" version="1.1" viewBox="0 0 1019.5 133.9">
  <!-- Generator: Adobe Illustrator 29.0.0, SVG Export Plug-In . SVG Version: 2.1.0 Build 186)  -->
  <defs>
    <style>
      .st0 {
        fill: url(#linear-gradient2);
      }

      .st1 {
        fill: url(#linear-gradient1);
      }

      .st2 {
        fill: url(#linear-gradient3);
      }

      .st3 {
        fill: url(#linear-gradient5);
      }

      .st4 {
        fill: url(#linear-gradient4);
      }

      .st5 {
        fill: url(#linear-gradient);
      }

      .st6 {
        fill: #fff;
      }
    </style>
    <linearGradient id="linear-gradient" x1="3.3" y1="116" x2="80.5" y2="-2.9" gradientTransform="translate(0 136) scale(1 -1)" gradientUnits="userSpaceOnUse">
      <stop offset="0" stop-color="#2b3990"/>
      <stop offset=".5" stop-color="#1c75bc"/>
      <stop offset="1" stop-color="#27aae1"/>
    </linearGradient>
    <linearGradient id="linear-gradient1" x1="65.4" y1="156.4" x2="142.6" y2="37.5" gradientTransform="translate(0 136) scale(1 -1)" gradientUnits="userSpaceOnUse">
      <stop offset="0" stop-color="#2b3990"/>
      <stop offset=".5" stop-color="#1c75bc"/>
      <stop offset="1" stop-color="#27aae1"/>
    </linearGradient>
    <linearGradient id="linear-gradient2" x1="53.5" y1="148.6" x2="130.8" y2="29.7" gradientTransform="translate(0 136) scale(1 -1)" gradientUnits="userSpaceOnUse">
      <stop offset="0" stop-color="#2b3990"/>
      <stop offset=".5" stop-color="#1c75bc"/>
      <stop offset="1" stop-color="#27aae1"/>
    </linearGradient>
    <linearGradient id="linear-gradient3" x1="17.5" y1="125.2" x2="94.8" y2="6.3" gradientTransform="translate(0 136) scale(1 -1)" gradientUnits="userSpaceOnUse">
      <stop offset="0" stop-color="#2b3990"/>
      <stop offset=".5" stop-color="#1c75bc"/>
      <stop offset="1" stop-color="#27aae1"/>
    </linearGradient>
    <linearGradient id="linear-gradient4" x1="-8.3" y1="108.4" x2="68.9" y2="-10.5" gradientTransform="translate(0 136) scale(1 -1)" gradientUnits="userSpaceOnUse">
      <stop offset="0" stop-color="#2b3990"/>
      <stop offset=".5" stop-color="#1c75bc"/>
      <stop offset="1" stop-color="#27aae1"/>
    </linearGradient>
    <linearGradient id="linear-gradient5" x1="39.6" y1="139.6" x2="116.8" y2="20.7" gradientTransform="translate(0 136) scale(1 -1)" gradientUnits="userSpaceOnUse">
      <stop offset="0" stop-color="#2b3990"/>
      <stop offset=".5" stop-color="#1c75bc"/>
      <stop offset="1" stop-color="#27aae1"/>
    </linearGradient>
  </defs>
  <g>
    <path class="st6" d="M214.4,29.5c8,0,14.1,1.8,18.3,5.5s6.4,8.8,6.4,15.3-1.6,9.5-4.8,12.9c-3.2,3.4-7.7,5.6-13.5,6.5l18.7,24.9h-18.5l-17.2-24.4h-2.3v24.4h-15.6V29.5h28.5ZM201.6,43.6v13.6h12.6c2.9,0,5.1-.6,6.7-1.7,1.6-1.1,2.4-2.9,2.4-5.1s-.8-4-2.4-5.1-3.8-1.7-6.7-1.7h-12.6Z"/>
    <path class="st6" d="M266.7,47.8c6.8,0,12.3,2.2,16.5,6.7s6.4,10.3,6.4,17.4,0,3.6-.3,4.5h-31c1.2,4.9,4.5,7.3,9.8,7.3s7-1.3,10-4l9.4,8.8c-5,5-11.7,7.5-20.1,7.5s-13-2.2-17.4-6.6-6.7-10.1-6.7-17.2,2.2-13.1,6.5-17.6,10-6.8,16.9-6.8h0ZM266.8,60.2c-4.4,0-7.2,2.3-8.4,7h16.6c-1.2-4.7-3.9-7-8.2-7Z"/>
    <path class="st6" d="M325.1,94.7h-16.6l-17.7-45.7h15.9l10.2,29.8,10.3-29.8h15.4l-17.5,45.7h0Z"/>
    <path class="st6" d="M349.3,28.7c1.7-1.7,3.7-2.5,6.2-2.5s4.5.8,6.2,2.5,2.5,3.8,2.5,6.2-.8,4.5-2.5,6.1c-1.7,1.7-3.7,2.5-6.2,2.5s-4.5-.8-6.2-2.5-2.5-3.7-2.5-6.1.8-4.6,2.5-6.2ZM362.9,94.7h-14.6v-45.7h14.6v45.7Z"/>
    <path class="st6" d="M394.1,47.8c6.8,0,12.3,2.2,16.5,6.7s6.4,10.3,6.4,17.4,0,3.6-.3,4.5h-31c1.2,4.9,4.5,7.3,9.8,7.3s7-1.3,10-4l9.4,8.8c-5,5-11.7,7.5-20.1,7.5s-13-2.2-17.4-6.6-6.7-10.1-6.7-17.2,2.2-13.1,6.5-17.6,10-6.8,16.9-6.8h0ZM394.1,60.2c-4.4,0-7.2,2.3-8.4,7h16.6c-1.2-4.7-3.9-7-8.2-7Z"/>
    <path class="st6" d="M476,78.2l8.9-29.2h15.3l-15.7,45.7h-16.3l-8.9-27.3-8.8,27.3h-16.2l-15.8-45.7h15.5l8.8,29,9.2-29h14.6l9.3,29.2h.1Z"/>
    <path class="st6" d="M552.9,48c-6.3-3.7-12.5-5.5-18.7-5.5s-5.5.5-7.4,1.5-2.8,2.5-2.8,4.3,0,1.2.4,1.8c.3.5.8,1,1.5,1.4s1.4.8,2,1c.6.3,1.5.5,2.9.8s2.4.5,3.1.6c.7,0,1.9.3,3.6.7l2.7.5c6.6,1.1,11.7,3.3,15.3,6.4,3.6,3.1,5.4,7.2,5.4,12.4s-.5,5.8-1.5,8.2c-1,2.5-2.4,4.5-4.1,6.2-1.7,1.7-3.7,3.1-6.1,4.2-2.3,1.1-4.8,2-7.5,2.5-2.6.5-5.4.8-8.2.8-5.5,0-10.8-.7-15.9-2.1-5-1.4-9.3-3.5-12.8-6.1l7.8-12.7c6.7,4.6,13.8,6.8,21,6.8s5.5-.5,7.5-1.6c1.9-1,2.9-2.5,2.9-4.5s-.2-1.5-.6-2c-.4-.6-.9-1.1-1.5-1.5s-1.5-.8-2.7-1.1c-1.2-.3-2.3-.6-3.5-.9-1.2-.2-2.7-.5-4.7-.8l-3.3-.5c-6.9-1.1-12-3.2-15.5-6.4-3.4-3.2-5.1-7.7-5-13.4.1-6.3,2.6-11.3,7.5-15,4.8-3.8,11.1-5.6,18.8-5.6s9.1.5,13.2,1.5c4.1,1,8.4,2.8,13.2,5.4l-6.9,12.8h-.1Z"/>
    <path class="st6" d="M603.5,62h-15.6v13.4c0,4.7,2.2,7,6.5,7s4.7-.9,7.9-2.8l5,11.4c-2.5,1.7-4.9,2.9-7.4,3.8s-5.4,1.3-8.8,1.3c-6,0-10.4-1.7-13.4-5s-4.4-7.9-4.4-13.8v-15.2h-8.5v-12.9h8.5v-13.3h14.6v13.3h15.6v12.9h0Z"/>
    <path class="st6" d="M639.5,47.8c1.8,0,3.5.2,5.1.7l-1.4,14.5c-2.3-.8-4.8-1.2-7.3-1.2-5.6,0-8.3,2.7-8.3,8.2v24.7h-14.6v-45.7h14v5.3c2.6-4.3,6.7-6.5,12.5-6.5Z"/>
    <path class="st6" d="M671.1,47.8c6.8,0,12.3,2.2,16.5,6.7s6.4,10.3,6.4,17.4,0,3.6-.3,4.5h-31c1.2,4.9,4.5,7.3,9.8,7.3s7-1.3,10-4l9.4,8.8c-5,5-11.7,7.5-20.1,7.5s-13-2.2-17.4-6.6-6.7-10.1-6.7-17.2,2.2-13.1,6.5-17.6,10-6.8,16.9-6.8h0ZM671.1,60.2c-4.4,0-7.2,2.3-8.4,7h16.6c-1.2-4.7-3.9-7-8.2-7h0Z"/>
    <path class="st6" d="M747.8,94.7h-14.1v-4.9c-3.2,4.1-7.6,6.1-13.1,6.1s-11.1-2.3-15.2-7c-4.1-4.6-6.1-10.4-6.1-17.2s.9-8.5,2.7-12.2,4.4-6.6,7.6-8.7c3.3-2.1,6.9-3.2,10.9-3.2s9.9,2.1,13.1,6.2v-4.9h14.1v45.7h0ZM724.1,61.4c-2.9,0-5.2,1-7,3s-2.7,4.5-2.7,7.5.9,5.5,2.7,7.5,4.1,3,7,3,5.2-1,7-3,2.7-4.5,2.7-7.5-.9-5.5-2.7-7.5-4.2-3-7-3Z"/>
    <path class="st6" d="M814,47.8c5.2,0,9.4,1.5,12.5,4.5s4.6,7.2,4.6,12.4v30h-14.6v-24.8c0-2.7-.6-4.8-1.9-6.2-1.3-1.5-3.1-2.2-5.4-2.2s-3.9.7-5.3,2.2c-1.4,1.5-2.1,3.6-2.1,6.5v24.6h-14.6v-24.8c0-2.7-.6-4.8-1.9-6.2-1.3-1.5-3-2.2-5.3-2.2s-4,.7-5.3,2.2c-1.4,1.5-2.1,3.6-2.1,6.5v24.6h-14.6v-45.7h14v5.7c2.8-4.7,7.4-7,13.6-7s5.7.7,8.2,2c2.4,1.3,4.4,3.2,5.8,5.6,3-5.1,7.8-7.6,14.5-7.6h-.1Z"/>
  </g>
  <g>
    <path class="st5" d="M52.8,128.7c-9.2,0-18.4-2.3-26.9-7.2l6.1-10.6c19.9,11.5,45.5,4.7,57.1-15.3l10.6,6.1c-10,17.3-28.2,27-46.9,27Z"/>
    <g>
      <path class="st1" d="M139.4,80.1h-12.9c0-24.3-19.8-44.1-44.1-44.1v-12.9c31.4,0,57,25.6,57,57Z"/>
      <path class="st0" d="M49.3,40.5l-11.2-6.5C53.8,6.8,88.8-2.6,116,13.1l-6.5,11.2c-21-12.2-48.1-4.9-60.2,16.1h0Z"/>
      <path class="st2" d="M25.4,77.9c-7.6-13.2-9.6-28.5-5.7-43.2C23.6,19.9,33.1,7.6,46.2,0l6.5,11.2c-10.2,5.9-17.5,15.4-20.5,26.8s-1.5,23.3,4.4,33.4c0,0-11.2,6.5-11.2,6.5Z"/>
      <path class="st4" d="M57,110.8C25.6,110.8,0,85.2,0,53.8h12.9c0,24.3,19.8,44.1,44.1,44.1v12.9Z"/>
      <path class="st3" d="M93.2,133.9l-6.5-11.2c10.2-5.9,17.5-15.4,20.5-26.8s1.5-23.3-4.4-33.4l11.2-6.5c7.6,13.2,9.6,28.5,5.7,43.2-3.9,14.7-13.4,27-26.6,34.6h.1Z"/>
    </g>
  </g>
  <g>
    <path class="st6" d="M857.2,79.2c0-11.1,7.4-17.9,15.4-17.9s7.2,1.6,10.2,4.3h.1l-.3-6.2v-13.1h5.8v49.8h-4.8l-.5-4.5h-.2c-2.8,2.9-6.9,5.3-11.1,5.3-8.8,0-14.7-6.4-14.7-17.8ZM882.7,87v-16.9c-3.1-2.9-6-3.9-8.9-3.9-5.9,0-10.6,5.2-10.6,13s3.8,13,10,13,6.5-1.7,9.5-5Z"/>
    <path class="st6" d="M899.2,79.2c0-11.4,7.8-17.9,16.8-17.9s16.8,6.5,16.8,17.9-7.8,17.8-16.8,17.8-16.8-6.5-16.8-17.8ZM926.9,79.2c0-7.8-4.3-13.1-10.9-13.1s-10.9,5.2-10.9,13.1,4.3,13,10.9,13,10.9-5.2,10.9-13Z"/>
    <path class="st6" d="M942.6,79.2c0-11.4,8.7-17.9,19-17.9s9.6,2.2,12.4,5l-2.9,3.7c-2.8-2.4-5.7-3.9-9.3-3.9-7.8,0-13.2,5.2-13.2,13.1s5.3,13,13.1,13,7.7-1.9,10.5-4.3l2.6,3.8c-3.8,3.4-8.5,5.3-13.5,5.3-10.6,0-18.6-6.5-18.6-17.8Z"/>
    <path class="st6" d="M984,91.6l2.7-3.9c3.9,2.8,8.5,4.6,14.8,4.6s8.5-2.4,8.5-5.3-1.3-4.4-10.6-6.3c-8.9-1.8-13.3-4.8-13.3-9.9s4.8-9.7,14.1-9.7,10.4,2,13.7,4.3l-2.8,3.7c-3.2-2.2-7.1-3.6-11.4-3.6s-7.8,2.3-7.8,4.9,2.9,4.2,9.9,5.7c11.3,2.5,14,5.3,14,10.5s-5.4,10.2-15.1,10.2-12.6-2.5-16.7-5.3Z"/>
  </g>
</svg>